<?xml version="1.0" encoding="utf-8"?>
<!-- Generator: Adobe Illustrator 27.2.0, SVG Export Plug-In . SVG Version: 6.00 Build 0)  -->
<svg version="1.1" id="Layer_1" xmlns="http://www.w3.org/2000/svg" xmlns:xlink="http://www.w3.org/1999/xlink" x="0px" y="0px"
	 viewBox="0 0 438 177" style="enable-background:new 0 0 438 177;" xml:space="preserve">
<style type="text/css">
	.st0{fill-rule:evenodd;clip-rule:evenodd;fill:#FFFFFF;}
</style>
<g id="HOME">
	<g id="LOGO-Copy-2" transform="translate(0.983061, 0.250000)">
		<g id="Combined-Shape">
			<path id="path-1_00000116935589796376262250000002954837899394370218_" class="st0" d="M436.2,1v174.5H-0.2V1H436.2z M433.2,4
				H2.8v168.6h430.4V4z M94.7,131.2v1.4H82.5v7.7h9.6v1.4h-9.6v8h12.6v1.4c-1.6,0.6-2.7,1.3-3.3,1.9c-0.6,0.6-0.9,1.3-0.9,1.9
				c0,0.6,0.2,1,0.6,1.3s0.9,0.5,1.4,0.5c0.4,0,0.7,0,1-0.1c0.3-0.1,0.6-0.2,0.8-0.3l0.4,1c-0.3,0.2-0.6,0.3-1,0.4
				c-0.4,0.1-0.8,0.2-1.3,0.2c-0.6,0-1.1-0.1-1.6-0.3c-0.5-0.2-0.8-0.5-1.1-0.9c-0.3-0.4-0.4-0.9-0.4-1.4c0-1,0.4-1.8,1.1-2.5
				c0.5-0.5,1.3-1,2.3-1.5H81v-19.8H94.7z M342.1,131.2l8,19.8c-1,0.3-1.8,0.7-2.4,1.1c-0.6,0.4-1,0.8-1.2,1.1
				c-0.2,0.4-0.3,0.8-0.3,1.2c0,0.6,0.2,1,0.6,1.3c0.4,0.3,0.9,0.4,1.5,0.4c0.4,0,0.7,0,1-0.1c0.3-0.1,0.6-0.2,0.8-0.4l0.3,1
				c-0.3,0.2-0.6,0.4-1,0.5c-0.4,0.1-0.8,0.2-1.3,0.2c-0.6,0-1.1-0.1-1.6-0.3c-0.5-0.2-0.8-0.5-1.1-0.9c-0.3-0.4-0.4-0.9-0.4-1.5
				c0-0.9,0.3-1.7,1-2.3c0.5-0.5,1.3-1,2.4-1.5l-2.4-5.9h-9.6l-2.5,6.2h-1.6l8-19.8H342.1z M328.4,131.2v13.3c0,2.1-0.6,3.8-1.7,5
				c-1.1,1.2-2.7,1.8-4.7,1.8c-1.4,0-2.6-0.3-3.5-0.8c-0.9-0.6-1.6-1.3-1.9-2.3c-0.4-1-0.4-2.1-0.2-3.5l1.4-0.3
				c-0.2,1.8,0,3.2,0.7,4.2c0.7,0.9,1.9,1.4,3.5,1.4c1.8,0,3-0.5,3.8-1.5c0.7-1,1.1-2.4,1.1-4.3v-13H328.4z M106.6,130.9
				c1.8,0,3.4,0.4,4.7,1.1c1.3,0.7,2.2,1.8,2.9,3.3l-1.3,1c-0.6-1.4-1.4-2.4-2.5-3c-1.1-0.6-2.4-0.9-3.9-0.9c-1.2,0-2.2,0.2-3,0.6
				c-0.8,0.4-1.5,0.9-1.9,1.5c-0.4,0.6-0.6,1.3-0.6,2.1c0,0.9,0.3,1.7,0.9,2.3c0.6,0.6,1.7,1.1,3.3,1.5l3.9,0.8c2,0.4,3.3,1,4.1,1.8
				c0.8,0.8,1.2,1.8,1.2,3.1c0,1.1-0.3,2-1,2.9c-0.6,0.8-1.5,1.5-2.6,2c-1.1,0.5-2.4,0.7-3.9,0.7c-1.4,0-2.7-0.2-3.8-0.6
				c-1.1-0.4-2.1-0.9-2.8-1.7c-0.8-0.7-1.3-1.6-1.7-2.6l1.3-1c0.3,0.9,0.8,1.7,1.4,2.4c0.7,0.7,1.5,1.2,2.4,1.5c1,0.3,2,0.5,3.2,0.5
				c1.1,0,2.1-0.2,3-0.5c0.9-0.3,1.6-0.8,2.1-1.4c0.5-0.6,0.7-1.3,0.7-2.2c0-0.8-0.3-1.6-0.9-2.1c-0.6-0.6-1.7-1-3.2-1.3l-4.1-0.9
				c-1.3-0.3-2.3-0.7-3.1-1.1c-0.8-0.5-1.4-1-1.7-1.7c-0.4-0.7-0.5-1.4-0.5-2.2c0-1,0.3-2,0.9-2.8c0.6-0.9,1.4-1.5,2.5-2.1
				S105.1,130.9,106.6,130.9z M204.7,131.2v13.3c0,2.1-0.6,3.8-1.7,5c-1.1,1.2-2.7,1.8-4.7,1.8c-1.4,0-2.6-0.3-3.5-0.8
				c-0.9-0.6-1.6-1.3-1.9-2.3c-0.4-1-0.5-2.1-0.2-3.5l1.4-0.3c-0.2,1.8,0,3.2,0.7,4.2c0.7,0.9,1.9,1.4,3.5,1.4c1.8,0,3-0.5,3.8-1.5
				c0.7-1,1.1-2.4,1.1-4.3v-13H204.7z M362,130.9c1.4,0,2.5,0.2,3.6,0.6c1,0.4,1.9,0.9,2.6,1.7c0.7,0.7,1.2,1.6,1.6,2.7l-1.5,0.7
				c-0.5-1.4-1.2-2.4-2.2-3.1c-1-0.7-2.3-1.1-4-1.1c-1.5,0-2.8,0.4-4,1.1c-1.1,0.7-2,1.7-2.7,3c-0.6,1.3-0.9,2.9-0.9,4.7
				c0,1.8,0.3,3.4,0.9,4.7c0.6,1.3,1.5,2.3,2.6,3.1c1.1,0.7,2.4,1.1,3.9,1.1c1.6,0,3-0.4,4.1-1.2c1.1-0.8,1.9-1.9,2.4-3.4l1.5,0.6
				c-0.4,1.1-1,2.1-1.7,2.9c-0.8,0.8-1.7,1.4-2.7,1.8c-1.1,0.4-2.2,0.6-3.6,0.6c-1.8,0-3.4-0.4-4.8-1.2c-1.4-0.8-2.4-2-3.2-3.5
				c-0.8-1.5-1.1-3.3-1.1-5.4c0-2.1,0.4-3.9,1.1-5.4c0.7-1.5,1.8-2.7,3.2-3.5C358.6,131.3,360.2,130.9,362,130.9z M179.4,130.9
				c1.9,0,3.5,0.4,4.9,1.2c1.4,0.8,2.4,2,3.2,3.5c0.7,1.5,1.1,3.3,1.1,5.4s-0.4,3.9-1.1,5.4c-0.7,1.5-1.8,2.7-3.2,3.5
				c-1.4,0.8-3,1.2-4.9,1.2c-1.9,0-3.5-0.4-4.9-1.2c-1.4-0.8-2.4-2-3.2-3.5c-0.7-1.5-1.1-3.3-1.1-5.4s0.4-3.9,1.1-5.4
				c0.7-1.5,1.8-2.7,3.2-3.5C175.9,131.3,177.5,130.9,179.4,130.9z M73.8,131.2V151h-1.5v-19.8H73.8z M245.1,131.2v1.3l-13.2,17.1
				h13.7v1.4h-15.5v-1.3l13.2-17.1h-12.9v-1.4H245.1z M389.1,131.2v1.4h-12.2v7.7h9.6v1.4h-9.6v8h12.6v1.4h-14.2v-19.8H389.1z
				 M264.5,131.2v1.4h-12.2v7.7h9.6v1.4h-9.6v8H265v1.4h-14.2v-19.8H264.5z M269.7,131.2l5.6,18.5l5.2-18.5h1.8l5.2,18.5l5.6-18.5
				h1.5l-6.2,19.8h-1.9l-4-13.9l-1.1-4.3h0l-1.1,4.3l-4,13.9h-1.9l-6.2-19.8H269.7z M155.6,131.2c3.2,0,5.7,0.8,7.4,2.5
				s2.6,4.1,2.6,7.3c0,3.3-0.9,5.8-2.6,7.5c-1.7,1.7-4.2,2.6-7.4,2.6h-6.3v-19.8H155.6z M127.2,131.2l8,19.8h-1.6l-2.5-6.2h-9.6
				L119,151h-1.6l8-19.8H127.2z M219.1,131.2c2,0,3.6,0.5,4.8,1.5c1.2,1,1.8,2.4,1.8,4.1c0,1.7-0.6,3.1-1.8,4.1
				c-0.8,0.7-1.8,1.1-3,1.3l5.9,8.8h-1.8l-5.8-8.7c0,0,0,0,0,0l-0.2,0.1h-5.7v8.6h-1.5v-19.8H219.1z M48.7,131.2l6,15l1,3h0l1-3
				l6-15.1h2.3V151h-1.5v-14.8l0.2-3.6h0L56.4,151h-1.4l-7.3-18.4h0l0.2,3.6V151h-1.5v-19.8H48.7z M305.7,131.2l8,19.8h-1.6
				l-2.5-6.2H300l-2.5,6.2h-1.6l8-19.8H305.7z M179.4,132.3c-1.6,0-2.9,0.4-4,1.1c-1.1,0.7-2,1.7-2.6,3.1c-0.6,1.3-0.9,2.9-0.9,4.7
				s0.3,3.4,0.9,4.7c0.6,1.3,1.5,2.3,2.6,3.1c1.1,0.7,2.5,1.1,4,1.1c1.6,0,2.9-0.4,4.1-1.1c1.1-0.7,2-1.7,2.6-3.1
				c0.6-1.3,0.9-2.9,0.9-4.7s-0.3-3.4-0.9-4.7c-0.6-1.3-1.5-2.3-2.6-3.1C182.4,132.6,181,132.3,179.4,132.3z M155.7,132.6h-4.9v17.1
				h4.9c2.7,0,4.7-0.8,6.1-2.3c1.4-1.5,2.1-3.6,2.1-6.4c0-2.7-0.7-4.8-2.1-6.2C160.4,133.3,158.4,132.6,155.7,132.6z M126.3,132.7
				L126.3,132.7l-0.8,2l-3.5,8.7h8.5l-3.5-8.7L126.3,132.7z M304.8,132.7L304.8,132.7l-0.8,2l-3.5,8.7h8.5l-3.5-8.7L304.8,132.7z
				 M341.2,132.7L341.2,132.7l-0.8,2l-3.5,8.7h8.5l-3.5-8.7L341.2,132.7z M219.1,132.6h-5.9v8.5h5.9c1.6,0,2.9-0.4,3.7-1.1
				c0.9-0.7,1.3-1.8,1.3-3.1c0-1.4-0.4-2.4-1.3-3.1C221.9,132.9,220.7,132.6,219.1,132.6z M283.5,25.5v4.8h-23.4v34.4h17.2v4.9
				h-17.2v36.7h23.4v4.6h-4.2c-1.2,1.8-1.8,3.6-1.8,5.4c0,1.4,0.3,2.4,1,3.1c1.1,1.2,3,1.2,3.6,1.2c0.6,0,1,0,1.4-0.1l0,5.5
				c-1,0.3-2.9,0.6-5.1,0c-3.9-1.1-6.6-4.7-7.2-8.4c-0.4-2.3,0-4.7,1.1-6.7h-24.1V25.5H283.5z M124.4,25.5l20.9,85.4h-13.1
				l-4.4-17.7h-22.3l-4.5,17.7h-4.8l21.6-85.4H124.4z M162.8,25.5L177.3,87l15.3-61.5h6.2L213.8,87l15.3-61.5h4.6l-21,85.4h-6.3
				l-14.8-60.8l-15.4,60.8h-6.4l-20.4-85.4H162.8z M335.7,25.5v5.1H322v80.3h-11.9V30.6h-14.2v-5.1H335.7z M368.6,25.5l20.9,85.4
				h-13.1l-4.4-17.7h-22.3l-4.5,17.7h-4.8l21.6-85.4H368.6z M63.1,25.5c9.6,0,16.8,1.6,21.4,4.9c4.7,3.3,7,8.9,7,16.8
				c0,8-2.1,13.8-6.3,17.2c-4.2,3.5-10.6,5.2-19.3,5.2h-7.5v41.3H46.4V25.5H63.1z M117,48.6l-10.2,39.8h20.1L117,48.6z M361.2,48.6
				l-10.2,39.8H371L361.2,48.6z M65.9,30.3h-7.5v34.6h7.5c4.5,0,8-1.3,10.4-3.9c2.4-2.6,3.6-7.1,3.6-13.5c0-6.4-1.2-10.9-3.6-13.4
				C73.9,31.5,70.4,30.3,65.9,30.3z"/>
		</g>
	</g>
</g>
</svg>
